<svg xmlns="http://www.w3.org/2000/svg" width="128" height="128" viewBox="0 0 128 128">
<g>
<path d="M 71.78 66.88 C71.50,108.83 71.48,109.27 69.37,110.67 C68.87,111.00 68.53,111.31 68.13,111.44 C66.73,111.88 64.62,110.06 52.01,99.17 C50.96,98.26 49.83,97.29 48.62,96.25 L 36.74 86.00 L 23.02 86.00 C11.01,86.00 9.11,85.77 7.65,84.17 C6.25,82.62 6.00,79.73 6.00,64.87 C6.00,52.62 6.36,47.04 7.20,46.20 C8.02,45.38 12.88,44.99 22.45,44.98 L 36.50 44.96 L 50.83 32.48 C62.10,22.66 65.77,20.00 68.06,20.00 C70.24,20.00 71.10,20.56 71.51,22.25 C71.81,23.49 71.93,43.57 71.78,66.88 ZM 110.85 106.55 C107.50,111.23 105.18,112.04 102.57,109.43 C100.43,107.29 100.58,106.24 103.55,102.35 C107.70,96.90 112.91,84.96 114.60,76.96 C117.69,62.43 114.14,44.83 105.36,31.09 C100.28,23.16 100.25,20.80 105.22,20.20 C108.19,19.84 112.28,24.78 117.05,34.50 C128.14,57.11 125.66,85.94 110.85,106.55 ZM 99.75 95.25 C96.82,100.02 95.04,100.83 91.75,98.92 C89.25,97.47 89.53,95.92 93.66,88.41 C102.06,73.12 101.96,55.61 93.37,41.36 C89.69,35.24 89.40,34.00 91.20,32.20 C93.75,29.65 96.71,30.87 99.82,35.75 C111.11,53.42 111.08,76.83 99.75,95.25 ZM 86.72 84.09 C84.08,88.01 82.26,88.64 79.48,86.61 C77.67,85.29 77.62,84.87 78.86,81.83 C82.42,73.08 82.92,71.07 82.96,65.13 C82.99,60.29 82.35,57.30 80.32,52.77 C77.31,46.06 77.80,43.73 82.37,43.18 C84.79,42.89 85.35,43.51 88.24,49.68 C90.98,55.54 91.44,57.63 91.46,64.50 C91.50,73.40 90.14,79.02 86.72,84.09 Z" fill="rgb(17,17,17)"/>
<path d="M 0.00 64.00 L 0.00 0.00 L 64.00 0.00 L 128.00 0.00 L 128.00 64.00 L 128.00 128.00 L 64.00 128.00 L 0.00 128.00 L 0.00 64.00 ZM 71.78 66.88 C71.93,43.57 71.81,23.49 71.51,22.25 C71.10,20.56 70.24,20.00 68.06,20.00 C65.77,20.00 62.10,22.66 50.83,32.48 L 36.50 44.96 L 22.45 44.98 C12.88,44.99 8.02,45.38 7.20,46.20 C6.36,47.04 6.00,52.62 6.00,64.87 C6.00,79.73 6.25,82.62 7.65,84.17 C9.11,85.77 11.01,86.00 23.02,86.00 L 36.74 86.00 L 48.62 96.25 C68.37,113.28 66.94,112.29 69.37,110.67 C71.48,109.27 71.50,108.83 71.78,66.88 ZM 110.85 106.55 C125.66,85.94 128.14,57.11 117.05,34.50 C112.28,24.78 108.19,19.84 105.22,20.20 C100.25,20.80 100.28,23.16 105.36,31.09 C114.14,44.83 117.69,62.43 114.60,76.96 C112.91,84.96 107.70,96.90 103.55,102.35 C100.58,106.24 100.43,107.29 102.57,109.43 C105.18,112.04 107.50,111.23 110.85,106.55 ZM 99.75 95.25 C111.08,76.83 111.11,53.42 99.82,35.75 C96.71,30.87 93.75,29.65 91.20,32.20 C89.40,34.00 89.69,35.24 93.37,41.36 C101.96,55.61 102.06,73.12 93.66,88.41 C89.53,95.92 89.25,97.47 91.75,98.92 C95.04,100.83 96.82,100.02 99.75,95.25 ZM 86.72 84.09 C90.14,79.02 91.50,73.40 91.46,64.50 C91.44,57.63 90.98,55.54 88.24,49.68 C85.35,43.51 84.79,42.89 82.37,43.18 C77.80,43.73 77.31,46.06 80.32,52.77 C82.35,57.30 82.99,60.29 82.96,65.13 C82.92,71.07 82.42,73.08 78.86,81.83 C77.62,84.87 77.67,85.29 79.48,86.61 C82.26,88.64 84.08,88.01 86.72,84.09 Z" fill="rgb(254,254,254)"/>
</g>
</svg>