<svg width="48" height="48" version="1.1" xmlns="http://www.w3.org/2000/svg" desc="Created with imagetracer.js version 1.2.6" ><path fill="rgb(0,0,0)" stroke="rgb(0,0,0)" stroke-width="1" opacity="0.15294117647058825" d="M 35.5 0 L 33.5 3 L 35.5 0 Z " /><path fill="rgb(0,0,0)" stroke="rgb(0,0,0)" stroke-width="1" opacity="0.15294117647058825" d="M 35.5 3 L 31.5 8 L 35.5 3 Z " /><path fill="rgb(0,0,0)" stroke="rgb(0,0,0)" stroke-width="1" opacity="0.15294117647058825" d="M 28.5 6 L 24.5 11 L 28.5 6 Z " /><path fill="rgb(0,0,0)" stroke="rgb(0,0,0)" stroke-width="1" opacity="0.15294117647058825" d="M 26.5 11 L 22.5 16 L 26.5 11 Z " /><path fill="rgb(0,0,0)" stroke="rgb(0,0,0)" stroke-width="1" opacity="0.15294117647058825" d="M 20.5 13 L 16.5 18 L 20.5 13 Z " /><path fill="rgb(0,0,0)" stroke="rgb(0,0,0)" stroke-width="1" opacity="0.15294117647058825" d="M 17.5 19 L 14 23.5 L 18 28.5 L 13 24.5 L 17.5 19 Z " /><path fill="rgb(0,0,0)" stroke="rgb(0,0,0)" stroke-width="1" opacity="0.15294117647058825" d="M 11.5 21 L 10.5 23 L 11.5 21 Z " /><path fill="rgb(0,0,0)" stroke="rgb(0,0,0)" stroke-width="1" opacity="0.15294117647058825" d="M 10.5 25 L 11.5 27 L 10.5 25 Z " /><path fill="rgb(0,0,0)" stroke="rgb(0,0,0)" stroke-width="1" opacity="0.15294117647058825" d="M 15.5 29 L 20.5 35 L 15.5 29 Z " /><path fill="rgb(0,0,0)" stroke="rgb(0,0,0)" stroke-width="1" opacity="0.15294117647058825" d="M 22.5 32 L 26.5 37 L 22.5 32 Z " /><path fill="rgb(0,0,0)" stroke="rgb(0,0,0)" stroke-width="1" opacity="0.15294117647058825" d="M 24.5 37 L 28.5 42 L 24.5 37 Z " /><path fill="rgb(0,0,0)" stroke="rgb(0,0,0)" stroke-width="1" opacity="0.15294117647058825" d="M 31.5 40 L 35.5 45 L 31.5 40 Z " /><path fill="rgb(0,0,0)" stroke="rgb(0,0,0)" stroke-width="1" opacity="0.15294117647058825" d="M 33.5 45 L 35.5 48 L 33.5 45 Z " /><path fill="rgb(0,0,0)" stroke="rgb(0,0,0)" stroke-width="1" opacity="0" d="M 0 0 L 35 0.5 L 10 22.5 Q 9.3 26.3 11.5 27 L 35 47.5 L 0 48 L 0 0 Z " /><path fill="rgb(0,0,0)" stroke="rgb(0,0,0)" stroke-width="1" opacity="0" d="M 38 0 L 47.5 0 L 48 0.5 L 48 48 L 38.5 48 L 38 46.5 L 14 24.5 L 21.5 16 L 38 1.5 L 38 0 Z " /><path fill="rgb(0,0,0)" stroke="rgb(0,0,0)" stroke-width="1" opacity="0.8431372549019608" d="M 36.5 0 Q 38.8 -0.8 38 1.5 L 13 23.5 L 17.5 29 L 38 46.5 Q 38.8 48.8 36.5 48 L 10 24.5 L 15.5 18 L 36.5 0 Z " /></svg>